<?xml version="1.0" encoding="UTF-8" standalone="no" ?>
<!DOCTYPE svg PUBLIC "-//W3C//DTD SVG 1.1//EN" "http://www.w3.org/Graphics/SVG/1.1/DTD/svg11.dtd">
<svg xmlns="http://www.w3.org/2000/svg" xmlns:xlink="http://www.w3.org/1999/xlink" version="1.1" width="1080" height="1080" viewBox="0 0 1080 1080" xml:space="preserve">
<desc>Created with Fabric.js 5.2.4</desc>
<defs>
</defs>
<g transform="matrix(1 0 0 1 540 540)" id="710695a7-5208-48be-bb48-57dea3e989c3"  >
</g>
<g transform="matrix(1 0 0 1 540 540)" id="6df349ff-8df4-43f0-8d17-fccbc93c1b34"  >
<rect style="stroke: none; stroke-width: 1; stroke-dasharray: none; stroke-linecap: butt; stroke-dashoffset: 0; stroke-linejoin: miter; stroke-miterlimit: 4; fill: rgb(255,255,255); fill-rule: nonzero; opacity: 1; visibility: hidden;" vector-effect="non-scaling-stroke"  x="-540" y="-540" rx="0" ry="0" width="1080" height="1080" />
</g>
<g transform="matrix(1 0 0 1 540 541)"  >
<circle style="stroke: none; stroke-width: 1; stroke-dasharray: none; stroke-linecap: butt; stroke-dashoffset: 0; stroke-linejoin: miter; stroke-miterlimit: 4; fill: rgb(255,84,126); fill-rule: nonzero; opacity: 1;" vector-effect="non-scaling-stroke"  cx="0" cy="0" r="31" />
</g>
<g transform="matrix(1 0 0 1 540 539)"  >
<circle style="stroke: none; stroke-width: 1; stroke-dasharray: none; stroke-linecap: butt; stroke-dashoffset: 0; stroke-linejoin: miter; stroke-miterlimit: 4; fill: rgb(255,129,119); fill-rule: nonzero; opacity: 1;" vector-effect="non-scaling-stroke"  cx="0" cy="0" r="31" />
</g>
<g transform="matrix(1 0 0 1 546.61 546.38)"  >
<path style="stroke: rgb(255,8,68); stroke-width: 1; stroke-dasharray: none; stroke-linecap: butt; stroke-dashoffset: 0; stroke-linejoin: miter; stroke-miterlimit: 4; fill: rgb(255,8,68); fill-rule: nonzero; opacity: 0.15;" vector-effect="non-scaling-stroke"  transform=" translate(-39.6, -39.38)" d="M 43.4 61.21 C 52.172009405671 58.07564463446384 59.075644634463835 51.172009405671005 62.209999999999994 42.4 L 50.39 30.58 L 49.910000000000004 31.06 L 36.39 17.55 L 35.17 19.17 L 33.47 29.68 L 26.39 22.6 L 17 32 L 25 40 L 23.58 41.41 Z" stroke-linecap="round" />
</g>
<g transform="matrix(1 0 0 1 540.01 539.07)"  >
<path style="stroke: none; stroke-width: 1; stroke-dasharray: none; stroke-linecap: butt; stroke-dashoffset: 0; stroke-linejoin: miter; stroke-miterlimit: 4; fill: rgb(255,252,242); fill-rule: nonzero; opacity: 1;" vector-effect="non-scaling-stroke"  transform=" translate(-33, -32.07)" d="M 25 22 C 24.47673671874872 21.99954206286897 23.974133188985444 22.204173499986876 23.6 22.57 L 23.6 22.57 L 15.600000000000001 30.57 C 15.22137469835381 30.945533199811113 15.008403351316664 31.456724927258882 15.008403351316664 31.99 C 15.008403351316664 32.523275072741114 15.22137469835381 33.03446680018889 15.600000000000001 33.41 L 23.6 41.41 L 23.6 41.41 C 24.098515367354697 41.95403688612829 24.856090840920423 42.17938128430086 25.570904381367765 41.99625480519395 C 26.285717921815106 41.81312832608704 26.841625689917603 41.25128559960622 27.017151117198136 40.53456771275329 C 27.192676544478672 39.817849825900346 26.95930002987671 39.06271003859714 26.41 38.56999999999999 L 26.41 38.56999999999999 L 19.83 32 L 26.389999999999997 25.44 L 26.389999999999997 25.44 C 26.977522498053148 24.873715617285 27.16210100715669 24.007289595689873 26.856392631507205 23.250716349478196 C 26.550684255857718 22.494143103266516 25.816002442538583 21.999162386371246 25 22 Z M 51 32 C 50.99641260783265 31.429037638990835 50.748962747115165 30.88683132653634 50.32 30.51 L 42.42 22.6 C 41.92148463264531 22.05596311387171 41.16390915907958 21.830618715699142 40.44909561863224 22.01374519480605 C 39.7342820781849 22.19687167391296 39.178374310082404 22.75871440039377 39.002848882801864 23.475432287246708 C 38.82732345552133 24.19215017409965 39.06069997012329 24.947289961402856 39.61 25.44 L 39.61 25.44 L 46.17 32 L 39.61 38.56 L 39.61 38.56 C 39.0606999701233 39.05271003859715 38.82732345552135 39.807849825900355 39.002848882801885 40.52456771275329 C 39.178374310082425 41.241285599606215 39.73428207818491 41.80312832608703 40.44909561863225 41.98625480519394 C 41.16390915907958 42.16938128430085 41.9214846326453 41.94403688612829 42.42 41.400000000000006 L 50.42 33.400000000000006 L 50.42 33.400000000000006 C 50.7894883272358 33.027478722949105 50.99779075691055 32.52467975476868 51 32 Z M 35 17 C 33.98948143776125 16.991429189634218 33.13133579170344 17.738015901704504 33 18.74 L 33 18.74 L 29 44.739999999999995 L 29 44.739999999999995 C 28.99436070385523 44.82657493110606 28.99436070385523 44.913425068893936 29 45 C 28.928202982522 46.10456949966159 29.765430500338415 47.058202982522 30.87 47.129999999999995 C 31.974569499661587 47.201797017478 32.928202982521995 46.364569499661584 33 45.26 L 33 45.26 L 37 19.259999999999998 L 37 19.259999999999998 C 37.00563929614477 19.173425068893934 37.00563929614477 19.086574931106064 37 19 C 37 17.895430500338414 36.10456949966159 17 35 17 Z" stroke-linecap="round" />
</g>
<g transform="matrix(0 0 0 0 0 0)"  >
<g style=""   >
</g>
</g>
<g transform="matrix(0 0 0 0 0 0)"  >
<g style=""   >
</g>
</g>
<g transform="matrix(0 0 0 0 0 0)"  >
<g style=""   >
</g>
</g>
<g transform="matrix(0 0 0 0 0 0)"  >
<g style=""   >
</g>
</g>
<g transform="matrix(0 0 0 0 0 0)"  >
<g style=""   >
</g>
</g>
<g transform="matrix(0 0 0 0 0 0)"  >
<g style=""   >
</g>
</g>
<g transform="matrix(0 0 0 0 0 0)"  >
<g style=""   >
</g>
</g>
<g transform="matrix(0 0 0 0 0 0)"  >
<g style=""   >
</g>
</g>
</svg>